<?xml version="1.0" encoding="utf-8"?>
<!-- Svg Vector Icons : http://www.onlinewebfonts.com/icon -->
<!DOCTYPE svg PUBLIC "-//W3C//DTD SVG 1.1//EN" "http://www.w3.org/Graphics/SVG/1.1/DTD/svg11.dtd">
<svg version="1.1" xmlns="http://www.w3.org/2000/svg" xmlns:xlink="http://www.w3.org/1999/xlink" x="0px" y="0px" viewBox="0 0 1000 1000" enable-background="new 0 0 1000 1000" xml:space="preserve">
<metadata> Svg Vector Icons : http://www.onlinewebfonts.com/icon </metadata>
<g><path d="M476.7,647.6c-3.2-1.1-6.8,0-8.8,2.7l-57.7,75.3c-3.4,4.4-8.7,7-14.3,7c-3.1,0-6.2-0.8-8.9-2.4L122.8,579.5c-2.4-1.4-5.5-1.4-7.9,0c-2.4,1.4-3.9,4-3.9,6.8v117.6c0,2.8,1.5,5.4,4,6.9l355.2,205.5c1.2,0.7,2.6,1.1,4,1.1c1.4,0,2.7-0.4,4-1.1c2.4-1.4,4-4,4-6.9V655.1C482,651.7,479.9,648.7,476.7,647.6z"/><path d="M885.1,579.5c-2.4-1.4-5.4-1.4-7.9,0L613,730.3c-2.7,1.5-5.8,2.3-8.9,2.3c-5.6,0-10.9-2.6-14.3-7l-57.7-75.3c-2.1-2.7-5.6-3.8-8.8-2.7c-3.2,1.1-5.4,4.1-5.4,7.5v254.4c0,2.8,1.5,5.4,4,6.9c1.2,0.7,2.6,1.1,4,1.1c1.4,0,2.7-0.4,4-1.1l355.2-205.5c2.5-1.4,4-4,4-6.9V586.3C889,583.5,887.5,580.9,885.1,579.5z"/><path d="M989.9,257.9c-0.4-2.6-2.1-4.8-4.4-5.9L627.9,83.4c-2.9-1.3-6.3-0.9-8.6,1.2L517,175l-13.3-7.1c-2.3-1.2-5.1-1.2-7.4,0L483,175L380.8,84.6c-2.4-2.1-5.8-2.6-8.6-1.2L14.5,252c-2.4,1.1-4,3.3-4.4,5.9c-0.4,2.6,0.4,5.2,2.3,7l106.7,103.2l-16.8,8.9c-1.3,0.7-2.4,1.8-3.2,3.1l-58,102.4c-2.1,3.8-0.8,8.6,3,10.8l341,194.7c3.4,2,7.8,1.1,10.2-2.1l72.1-94.1c1.4-1.8,1.9-4.2,1.5-6.4c-0.5-2.3-1.9-4.2-3.9-5.3L126.4,393.4L487.1,202l0,235.3l-88.5,51.3c-2.5,1.4-4,4.1-4,6.9c0,2.9,1.6,5.5,4.1,6.9l97.4,53.7c2.4,1.3,5.3,1.3,7.7,0l97.5-53.7c2.5-1.4,4.1-4,4.1-6.9c0-2.9-1.5-5.5-4-6.9l-88.5-51.3l0-235.3l360.6,191.4L535,579.9c-2,1.1-3.5,3.1-3.9,5.3c-0.5,2.3,0.1,4.6,1.5,6.4l72.1,94.1c1.5,2,3.9,3.1,6.3,3.1c1.3,0,2.7-0.3,3.9-1l341-194.7c3.8-2.2,5.1-7,3-10.8l-58-102.4c-0.7-1.3-1.8-2.4-3.2-3.1l-16.8-8.9l106.7-103.2C989.5,263.1,990.3,260.5,989.9,257.9z"/></g>
</svg>